<svg width="18" height="24" viewBox="0 0 18 24" fill="none" xmlns="http://www.w3.org/2000/svg">
<path d="M6.38326 23.9995C5.8598 23.9995 5.29799 23.8806 4.70107 23.6428C3.44726 23.1436 2.67802 22.4103 2.41602 21.4639C1.91688 19.6616 3.42619 17.704 4.42557 16.4083C4.58006 16.208 4.75725 15.9782 4.8842 15.7988C4.6665 15.6805 4.3575 15.5326 4.09064 15.4052C3.23605 14.997 2.17293 14.4887 1.34102 13.7994C0.234689 12.8825 -0.190449 11.8552 0.0780309 10.7465C0.284928 9.89271 0.702503 9.34372 1.32049 9.11501C1.77102 8.94791 2.24694 8.98754 2.70179 9.12787C1.96441 7.72887 1.39072 6.01601 2.48409 4.98604C2.99458 4.5056 3.50237 4.46222 3.83783 4.51042C4.50228 4.60576 5.04842 5.13547 5.48976 5.73321C5.56647 4.28172 5.87979 2.42799 7.08443 1.2127C7.87205 0.418403 8.9249 0.0102726 10.2138 9.61463e-05C10.7864 -0.0052599 11.271 0.213267 11.6075 0.629431C12.5896 1.84311 12.0997 4.39848 11.4109 7.36573C11.3747 7.52159 11.3364 7.68709 11.2991 7.85045C12.1407 7.21844 13.3248 6.50448 14.678 6.72729C15.7606 6.90564 16.7319 7.65978 17.5659 8.96933C17.9781 9.61688 18.0975 10.2778 17.9209 10.9345C17.5217 12.417 15.7028 13.3688 14.6159 13.9371C14.6127 13.9387 14.61 13.9403 14.6067 13.9419C15.2236 14.5107 16.1333 15.3591 16.6854 16.4142C17.4223 17.8218 17.2834 19.1913 16.2835 20.375C15.6374 21.1399 14.899 21.5137 14.086 21.4848C12.5232 21.4296 11.2116 19.8678 10.3327 18.69C10.0815 20.3075 9.56179 22.6524 7.90986 23.6015C7.44745 23.8672 6.9375 24 6.38433 24L6.38326 23.9995ZM6.38109 15.6183C6.39838 16.0538 6.09749 16.4442 5.49787 17.2219C4.71187 18.2417 3.39594 19.9476 3.7179 21.1099C3.86268 21.6316 4.36236 22.0659 5.204 22.4007C6.03915 22.7333 6.70197 22.7467 7.23137 22.443C8.55054 21.6851 8.91356 19.103 9.08804 17.862C9.12369 17.6081 9.15178 17.4072 9.18258 17.2498C9.21877 17.0634 9.30358 16.6269 9.74384 16.5005C10.2289 16.3612 10.5563 16.7559 10.6795 16.9043C10.7994 17.0489 10.9436 17.246 11.11 17.4747C11.7334 18.329 13.0299 20.1072 14.1335 20.1463C14.5133 20.1603 14.8774 19.953 15.2474 19.5148C16.4904 18.0435 15.5089 16.6033 13.6533 14.8926C13.1179 14.3993 12.8235 14.1272 12.9078 13.6821C12.9845 13.2767 13.2978 13.1122 13.985 12.7528C14.8179 12.3169 16.3683 11.506 16.6152 10.589C16.6644 10.4069 16.6978 10.1155 16.4234 9.68436C15.8044 8.71171 15.1426 8.16164 14.4566 8.04863C13.408 7.87616 12.3498 8.72188 11.6497 9.28159C11.4417 9.44816 11.2618 9.5917 11.1008 9.69454C10.6141 10.0052 10.2689 9.90128 10.0647 9.75935C9.61905 9.4503 9.72169 8.8606 9.78976 8.47068C9.85404 8.10165 9.96532 7.62175 10.0944 7.06579C10.3289 6.05511 10.6211 4.79697 10.7465 3.68345C10.9226 2.11573 10.6708 1.61173 10.5541 1.46819C10.5039 1.40606 10.4331 1.33964 10.2316 1.33964C10.2289 1.33964 10.2268 1.33964 10.2241 1.33964C9.29385 1.34714 8.58133 1.6128 8.04707 2.15162C6.78462 3.42475 6.80839 5.92442 6.8192 7.12524C6.82136 7.35127 6.82298 7.52962 6.81649 7.67102C6.80893 7.84028 6.78894 8.28911 6.35678 8.46747C6.14718 8.5537 5.73934 8.6169 5.36066 8.06523C5.26774 7.92972 5.16402 7.75137 5.04355 7.54516C4.8318 7.18095 4.56818 6.72782 4.27809 6.36576C3.90967 5.90567 3.69846 5.84354 3.64281 5.83551C3.58501 5.82747 3.50722 5.86818 3.41269 5.95709C3.06696 6.28274 3.25765 7.03205 3.47859 7.60354C3.81082 8.46318 4.37263 9.34693 4.74428 9.93128C4.86367 10.1193 4.95821 10.2676 5.02627 10.386C5.33094 10.9152 5.15808 11.2328 4.95875 11.4058C4.83882 11.5097 4.50876 11.7197 4.0269 11.4192C3.94209 11.3662 3.84539 11.2981 3.7233 11.2114C3.36569 10.9586 2.27773 10.1889 1.79209 10.3689C1.56736 10.4524 1.44366 10.837 1.39018 11.0587C1.07578 12.3576 2.84116 13.3222 4.67568 14.1984C5.75932 14.7158 6.3557 15.0013 6.38055 15.6178L6.38109 15.6183Z" fill="#18181B"/>
<path d="M8.7693 15.613C8.61102 15.613 8.46733 15.5835 8.34092 15.5401C7.42042 15.2231 6.99204 13.929 7.04444 12.8139C7.0936 11.7818 7.55817 11.0593 8.28798 10.882C8.61859 10.8016 9.08532 10.8049 9.50506 10.8911C10.1112 11.0148 10.5784 11.2949 10.855 11.7009C11.359 12.439 11.1845 13.409 10.337 14.5825C9.75895 15.3832 9.20903 15.6124 8.7693 15.6124V15.613ZM8.6094 12.183C8.57645 12.191 8.44734 12.3436 8.40413 12.74C8.3258 13.4566 8.58996 14.1433 8.7693 14.2659C8.81954 14.2456 8.98376 14.1572 9.23874 13.8037C9.77786 13.0571 9.84376 12.6088 9.73626 12.4518C9.56556 12.2017 8.87518 12.1182 8.60886 12.183H8.6094Z" fill="#18181B"/>
</svg>
